<svg
      width="970"
      height="1359"
      viewBox="0 0 970 1359"
      fill="none"
      xmlns="http://www.w3.org/2000/svg"
    >
      <path
        d="M253.532 1530.41C-6.55907 1389.13 0.956012 960.428 0.956012 960.428C0.956012 960.428 24.2969 380.928 311.822 163.328C722.521 -147.49 868.122 83.0103 1088.62 83.0103C1484.46 83.0103 896.607 643.77 1447.29 1004.04C1997.97 1364.3 1183.05 1130.14 1101.21 1275.81C1035.74 1392.34 647.122 1746.72 563.835 1610C446.801 1417.88 527.032 1678.97 253.532 1530.41Z"
        fill="#a6696e"
      />
      <path
        d="M253.532 1530.41C-6.55907 1389.13 0.956012 960.428 0.956012 960.428C0.956012 960.428 24.2969 380.928 311.822 163.328C722.521 -147.49 868.122 83.0103 1088.62 83.0103C1484.46 83.0103 896.607 643.77 1447.29 1004.04C1997.97 1364.3 1183.05 1130.14 1101.21 1275.81C1035.74 1392.34 647.122 1746.72 563.835 1610C446.801 1417.88 527.032 1678.97 253.532 1530.41Z"
        fill="white"
        fill-opacity="0.69"
      />
    </svg>