<svg xmlns="http://www.w3.org/2000/svg" version="1.1" xmlns:xlink="http://www.w3.org/1999/xlink" xmlns:svgjs="http://svgjs.dev/svgjs" width="796" height="527" preserveAspectRatio="none" viewBox="0 0 796 527">
    <g mask="url(&quot;#SvgjsMask1402&quot;)" fill="none">
        <rect width="796" height="527" x="0" y="0" fill="rgba(81, 46, 95, 1)"></rect>
        <path d="M0,388.769C71.942,388.718,113.041,306.138,164.304,255.662C205.349,215.247,250.413,177.448,269.73,123.181C288.198,71.298,268.232,16.377,269.082,-38.688C270.132,-106.714,310.857,-180.549,275.312,-238.559C239.894,-296.362,161.191,-309.081,94.851,-323.034C32.337,-336.182,-34.052,-341.117,-92.78,-315.979C-148.587,-292.092,-172.497,-229.031,-218.174,-189.049C-273.752,-140.402,-368.965,-126.914,-389.752,-56.038C-410.194,13.66,-358.464,85.401,-315.936,144.283C-278.454,196.179,-215.082,216.72,-164.455,255.898C-107.567,299.921,-71.932,388.82,0,388.769" fill="#351e3e"></path>
        <path d="M796 911.953C866.955 904.578 904.151 825.569 957.297 777.983 1001.0989999999999 738.764 1049.146 706.625 1080.715 657.025 1116.051 601.506 1164.01 540.355 1149.38 476.192 1134.714 411.873 1054.252 390.437 1008.987 342.446 966.304 297.19100000000003 945.325 233.32600000000002 891.272 202.53500000000003 829.901 167.575 756.95 143.72899999999998 688.145 159.68099999999998 618.135 175.913 557.263 226.57999999999998 520.7 288.451 486.604 346.14599999999996 507.254 417.789 496.518 483.94100000000003 485.515 551.738 434.23 617.033 456.85 681.885 479.644 747.235 554.336 775.059 611.612 813.913 670.41 853.799 725.331 919.298 796 911.953" fill="#6d3e80"></path>
    </g>
    <defs>
        <mask id="SvgjsMask1402">
            <rect width="800" height="527" fill="#ffffff"></rect>
        </mask>
    </defs>
</svg>