<svg width="838" height="604" viewBox="0 0 838 604" fill="none" xmlns="http://www.w3.org/2000/svg">
<path d="M221 537.705C-64.777 537.705 -32.9514 283.558 92.5002 262.45C217.952 241.342 275.177 238.072 348.5 143.93C433.61 34.6565 665.501 -39.4117 769.318 24.4801C984.409 156.852 799.706 212.82 1317.21 344.694C1834.72 476.568 1046.1 423.469 954 498.521C880.32 558.562 529 642.195 457 583.177C355.827 500.246 265.5 537.705 221 537.705Z" fill="#976E72"/>
<path d="M221 537.705C-64.777 537.705 -32.9514 283.558 92.5002 262.45C217.952 241.342 275.177 238.072 348.5 143.93C433.61 34.6565 665.501 -39.4117 769.318 24.4801C984.409 156.852 799.706 212.82 1317.21 344.694C1834.72 476.568 1046.1 423.469 954 498.521C880.32 558.562 529 642.195 457 583.177C355.827 500.246 265.5 537.705 221 537.705Z" fill="white" fill-opacity="0.69"/>
</svg>
